# File produced by Open Asset Import Library (http://www.assimp.sf.net)
# (assimp v3.1.206520482)

mtllib Crystal_mesh.mtl

# 49 vertex positions
v 4.26798 1.18478 0.651749
v 4.25334 0.760716 0.602564
v 3.92506 0.975517 0.423872
v 3.93065 1.63116 0.404699
v 3.25949 1.18458 0.543967
v 3.56587 1.41772 0.382669
v 3.54373 0.922107 0.377878
v 3.32386 0.90231 0.576355
v 2.95967 0.681207 0.815917
v 2.9511 1.87324 0.81697
v 2.9891 0.598846 1.07373
v 2.87445 2.0194 1.08391
v 2.95819 1.22553 1.36058
v 2.97544 1.83174 1.54398
v 3.27387 0.965609 1.83901
v 3.37949 1.67978 1.77991
v 3.70177 0.172837 1.949
v 3.71365 2.0194 1.85341
v 4.27802 1.31324 1.52071
v 4.05098 1.86758 1.62901
v 4.22119 0.446288 1.02031
v 4.23929 2.0194 0.992407
v 3.91333 0.413271 0.765207
v 4.04685 0.164234 1.05797
v 3.33235 -0.138274 1.21777
v 3.40371 0.313168 0.665897
v 3.58676 0.549438 0.481317
v 3.09282 0.405583 0.947157
v 3.04388 0.0978609 1.25667
v 3.14333 0.00696886 1.70246
v 3.40371 -0.126798 1.83622
v 3.72555 -0.126798 1.83622
v 3.98592 -0.0752239 1.70246
v 4.08538 -0.0446982 1.48602
v 3.99983 2.56372 0.901571
v 3.86707 2.33645 0.630895
v 3.64264 2.95281 1.29249
v 3.66824 2.28898 0.633186
v 3.40598 2.36029 0.658831
v 3.21948 2.61763 0.95966
v 3.11904 2.48816 1.30738
v 3.10612 2.33443 1.52811
v 3.22112 2.51922 1.48798
v 3.29801 2.06289 1.80993
v 3.35807 2.45945 1.69529
v 3.73086 2.43501 1.72938
v 3.70662 2.82886 1.64799
v 3.99983 2.78188 1.53396
v 4.16188 2.47496 1.21777

# 53 UV coordinates
vt 0.650575 0.270767 0
vt 0.571706 0.247552 0
vt 0.555309 0.180466 0
vt 0.694305 0.199594 0
vt 0.355622 0.0205722 0
vt 0.558805 0.110449 0
vt 0.456133 0.120691 0
vt 0.366733 0.0988373 0
vt 0.275376 0.214902 0
vt 0 0.376194 0
vt 0.239533 0.301099 0
vt 0.101286 0.499512 0
vt 0.224486 0.461985 0
vt 0.269849 0.581567 0
vt 0.367281 0.502538 0
vt 0.404242 0.60808 0
vt 0.433053 0.410951 0
vt 0.534036 0.645597 0
vt 0.626689 0.465261 0
vt 0.639557 0.564939 0
vt 0.545686 0.301357 0
vt 0.771828 0.406438 0
vt 0.476674 0.227778 0
vt 0.485297 0.282158 0
vt 0.363919 0.290875 0
vt 0.384526 0.20076 0
vt 0.432064 0.164826 0
vt 0.297498 0.246452 0
vt 0.313795 0.304737 0
vt 0.345916 0.367183 0
vt 0.385276 0.368597 0
vt 0.422873 0.36974 0
vt 0.454343 0.356652 0
vt 0.471575 0.333794 0
vt 0.871302 0.380748 0
vt 0.844363 0.262986 0
vt 0.994019 0.448425 0
vt 0.859874 0.195093 0
vt 0.898213 0.145561 0
vt 0.999999 0.147899 0
vt 0.198555 0.782163 0
vt 0.262735 0.72001 0
vt 0.449973 0.864033 0
vt 0.305546 0.693131 0
vt 0.346761 0.734028 0
vt 0.408281 0.668025 0
vt 0.439314 0.731354 0
vt 0.59147 0.704091 0
vt 0.599799 0.773808 0
vt 0.774405 0.653921 0
vt 0.664819 0.813872 0
vt 0.808095 0.504997 0
vt 0.744575 0 0

# 159 vertex normals
vn 0.547905 0.0129848 -0.83644
vn 0.547905 0.0129848 -0.83644
vn 0.547905 0.0129848 -0.83644
vn -0.543831 -0.0592163 -0.837103
vn -0.543831 -0.0592163 -0.837103
vn -0.543831 -0.0592162 -0.837103
vn -0.626138 -0.047515 -0.778263
vn -0.626138 -0.047515 -0.778263
vn -0.626138 -0.047515 -0.778263
vn -0.626138 -0.047515 -0.778263
vn -0.995384 -0.0465863 -0.083902
vn -0.995384 -0.0465863 -0.083902
vn -0.995384 -0.0465863 -0.083902
vn -0.989964 -0.0598053 0.12804
vn -0.989964 -0.0598053 0.12804
vn -0.989964 -0.0598053 0.12804
vn -0.7048 -0.00119515 0.709405
vn -0.195118 0.0680583 0.978416
vn -0.195118 0.0680583 0.978416
vn -0.195118 0.0680583 0.978416
vn 0.548254 0.044714 0.835115
vn 0.548254 0.044714 0.835115
vn 0.548254 0.044714 0.835115
vn 0.993913 0.0955458 0.0548384
vn 0.993913 0.0955458 0.0548384
vn 0.993913 0.0955458 0.0548384
vn 0.995634 -0.0172943 0.0917314
vn 0.995634 -0.0172943 0.0917314
vn 0.995634 -0.0172943 0.0917314
vn 0.151819 -0.717623 -0.679682
vn 0.151819 -0.717623 -0.679682
vn 0.151819 -0.717623 -0.679682
vn 0.265435 -0.748698 -0.607449
vn 0.265435 -0.748698 -0.607449
vn 0.265435 -0.748698 -0.607449
vn -0.64465 -0.548756 -0.532252
vn -0.64465 -0.548756 -0.532252
vn -0.538645 -0.553361 -0.635337
vn -0.538645 -0.553361 -0.635337
vn -0.634628 -0.772653 -0.0159527
vn -0.634628 -0.772653 -0.0159527
vn -0.634628 -0.772653 -0.0159527
vn -0.484841 -0.871624 0.0721178
vn -0.484841 -0.871624 0.0721178
vn 0 -0.999828 0.0185528
vn 0.154118 -0.984832 -0.0797103
vn 0.154118 -0.984832 -0.0797103
vn 0.154118 -0.984832 -0.0797103
vn 0.147925 -0.986436 -0.071152
vn 0.147925 -0.986436 -0.071152
vn 0.147925 -0.986436 -0.071152
vn 0.264029 -0.857193 -0.442163
vn 0.264029 -0.857193 -0.442163
vn 0.0823867 0.742974 -0.66423
vn 0.0823867 0.742974 -0.66423
vn -0.00656286 0.70454 -0.709634
vn -0.00656285 0.70454 -0.709634
vn -0.00656286 0.70454 -0.709634
vn -0.0593495 0.740094 -0.669879
vn -0.0593495 0.740094 -0.669879
vn -0.0593495 0.740094 -0.669879
vn -0.659834 0.746323 0.0872942
vn -0.659834 0.746323 0.0872942
vn -0.659834 0.746323 0.0872942
vn -0.676458 0.687519 0.264049
vn -0.676458 0.687519 0.264049
vn -0.634239 0.371496 0.678035
vn -0.634239 0.371496 0.678035
vn -0.634239 0.371496 0.678035
vn -0.634239 0.371496 0.678035
vn -0.07251 0.243179 0.967267
vn -0.07251 0.243179 0.967267
vn -0.07251 0.243179 0.967267
vn 0.36611 0.63575 0.679548
vn 0.36611 0.63575 0.679548
vn 0.595841 0.707021 -0.380912
vn 0.595841 0.707021 -0.380912
vn 0.595841 0.707021 -0.380912
vn 0.660995 0.7388 -0.131379
vn 0.660995 0.7388 -0.131379
vn 0.660995 0.7388 -0.131379
vn 0.76712 0.256398 -0.588036
vn 0.76712 0.256398 -0.588036
vn 0.76712 0.256398 -0.588036
vn 0.76712 0.256398 -0.588036
vn -0.358038 0.206083 -0.91068
vn -0.358038 0.206083 -0.91068
vn -0.358038 0.206083 -0.91068
vn -0.524905 0.223578 -0.821272
vn -0.524905 0.223578 -0.821272
vn -0.524905 0.223578 -0.821272
vn -0.858924 0.44151 -0.259459
vn -0.858924 0.44151 -0.259459
vn -0.858924 0.44151 -0.259459
vn -0.858924 0.44151 -0.259459
vn -0.916665 0.296948 0.267484
vn -0.916665 0.296948 0.267484
vn -0.64602 0.0236864 0.762953
vn -0.64602 0.0236864 0.762953
vn -0.64602 0.0236864 0.762953
vn -0.64602 0.0236864 0.762953
vn -0.0921378 0.109085 0.989753
vn -0.0921378 0.109085 0.989753
vn -0.0921378 0.109085 0.989753
vn 0.529455 0.151022 0.834787
vn 0.529455 0.151022 0.834787
vn 0.529455 0.151022 0.834787
vn 0.529455 0.151022 0.834787
vn 0.940003 0.0561978 0.336507
vn 0.940003 0.0561978 0.336507
vn 0.940003 0.0561978 0.336507
vn 0.940003 0.0561978 0.336507
vn 0.82609 0.281985 -0.487914
vn 0.82609 0.281985 -0.487914
vn 0.82609 0.281985 -0.487914
vn 0.217903 -0.5805 -0.784562
vn 0.217903 -0.5805 -0.784562
vn 0.217903 -0.5805 -0.784562
vn 0.217903 -0.5805 -0.784562
vn -0.58943 -0.230647 -0.774193
vn -0.58943 -0.230647 -0.774193
vn -0.536252 -0.330385 -0.776711
vn -0.536252 -0.330385 -0.776711
vn -0.911727 -0.323198 -0.253568
vn -0.911727 -0.323198 -0.253568
vn -0.911727 -0.323198 -0.253568
vn -0.911727 -0.323198 -0.253568
vn -0.983518 -0.0892244 0.157264
vn -0.983518 -0.0892244 0.157264
vn -0.983518 -0.0892244 0.157264
vn -0.727817 0.00142373 0.685769
vn -0.727817 0.00142373 0.68577
vn -0.727817 0.00142373 0.685769
vn -0.255084 -0.107925 0.960877
vn -0.255084 -0.107925 0.960877
vn -0.255084 -0.107925 0.960877
vn 0.620084 -0.0666279 0.781701
vn 0.620084 -0.0666279 0.781701
vn 0.620084 -0.0666279 0.781701
vn 0.620084 -0.0666279 0.781701
vn 0.964206 -0.142501 0.223606
vn 0.964206 -0.142501 0.223606
vn 0.964206 -0.142501 0.223606
vn 0.781774 -0.527601 -0.332365
vn 0.781774 -0.527601 -0.332365
vn -0.10103 0.290229 -0.951609
vn -0.10103 0.290229 -0.951609
vn -0.10103 0.290229 -0.951609
vn 0.096015 -0.014746 -0.995271
vn 0.096015 -0.014746 -0.995271
vn 0.0960149 -0.014746 -0.995271
vn 0.350322 -0.392782 -0.850292
vn 0.350322 -0.392782 -0.850293
vn 0.350321 -0.392782 -0.850292
vn 0.350322 -0.392782 -0.850292
vn -0.658319 0.666047 0.350711
vn -0.658319 0.666047 0.350711
vn -0.482203 0.703918 0.521517
vn -0.482203 0.703918 0.521517

# Mesh 'pCylinder7_pCylinder7' with 94 faces
g pCylinder7_pCylinder7
usemtl lambert1
f 1/1/1 2/2/1 3/3/2
f 3/3/2 4/4/3 1/1/1
f 5/5/4 6/6/5 7/7/4
f 7/7/4 8/8/6 5/5/4
f 5/5/7 8/8/8 9/9/9
f 9/9/9 10/10/10 5/5/7
f 10/10/11 9/9/12 11/11/12
f 11/11/12 12/12/13 10/10/11
f 12/12/14 11/11/15 13/13/15
f 13/13/15 14/14/16 12/12/14
f 14/14/17 13/13/17 15/15/17
f 15/15/17 16/16/17 14/14/17
f 16/16/18 15/15/19 17/17/20
f 17/17/20 18/18/19 16/16/18
f 18/18/21 17/17/22 19/19/22
f 19/19/22 20/20/23 18/18/21
f 20/20/24 19/19/25 21/21/25
f 21/21/25 22/22/26 20/20/24
f 22/22/27 21/21/28 2/2/27
f 2/2/27 1/1/29 22/22/27
f 23/23/30 24/24/31 25/25/32
f 25/25/33 26/26/34 27/27/35
f 27/27/35 23/23/34 25/25/33
f 28/28/36 26/26/37 25/25/36
f 29/29/38 28/28/39 25/25/38
f 30/30/40 29/29/41 25/25/42
f 31/31/43 30/30/43 25/25/44
f 32/32/45 31/31/45 25/25/45
f 33/33/46 32/32/47 25/25/48
f 34/34/49 33/33/50 25/25/51
f 24/24/52 34/34/53 25/25/53
f 35/35/54 36/36/55 37/37/54
f 37/37/56 36/36/57 38/38/58
f 38/38/58 39/39/56 37/37/56
f 39/39/59 40/40/60 37/37/61
f 40/41/62 41/42/63 37/43/64
f 37/43/65 41/42/66 42/44/65
f 42/44/65 43/45/65 37/43/65
f 43/45/67 42/44/68 44/46/69
f 44/46/69 45/47/70 43/45/67
f 45/47/71 44/46/72 46/48/73
f 46/48/73 47/49/71 45/47/71
f 47/49/74 46/48/75 48/50/74
f 48/50/74 37/51/74 47/49/74
f 48/50/76 49/52/77 37/37/78
f 49/52/79 35/35/80 37/37/81
f 35/35/82 1/1/83 4/4/84
f 4/4/84 36/36/85 35/35/82
f 39/39/86 38/38/87 6/6/88
f 6/6/88 5/5/88 39/39/86
f 39/39/89 5/5/90 10/53/89
f 10/53/89 40/40/91 39/39/89
f 40/41/92 10/10/93 12/12/94
f 12/12/94 41/42/95 40/41/92
f 41/42/96 12/12/97 14/14/97
f 14/14/97 42/44/97 41/42/96
f 42/44/98 14/14/99 16/16/100
f 16/16/100 44/46/101 42/44/98
f 44/46/102 16/16/103 18/18/104
f 18/18/104 46/48/102 44/46/102
f 46/48/105 18/18/106 20/20/107
f 20/20/107 48/50/108 46/48/105
f 48/50/109 20/20/110 22/22/111
f 22/22/111 49/52/112 48/50/109
f 22/22/113 1/1/113 35/35/114
f 22/22/113 35/35/114 49/52/115
f 23/23/116 3/3/117 2/2/118
f 2/2/118 24/24/119 23/23/116
f 26/26/120 8/8/120 7/7/120
f 7/7/120 27/27/121 26/26/120
f 28/28/122 9/9/122 8/8/122
f 8/8/122 26/26/123 28/28/122
f 29/29/124 11/11/125 9/9/126
f 9/9/126 28/28/127 29/29/124
f 30/30/128 13/13/129 11/11/129
f 11/11/129 29/29/130 30/30/128
f 31/31/131 15/15/132 13/13/133
f 13/13/133 30/30/131 31/31/131
f 32/32/134 17/17/135 15/15/136
f 15/15/136 31/31/135 32/32/134
f 33/33/137 19/19/138 17/17/139
f 17/17/139 32/32/140 33/33/137
f 34/34/141 21/21/142 19/19/141
f 19/19/141 33/33/143 34/34/141
f 24/24/144 2/2/144 21/21/145
f 21/21/145 34/34/144 24/24/144
f 36/36/146 4/4/147 6/6/146
f 6/6/146 38/38/148 36/36/146
f 4/4/149 3/3/150 7/7/149
f 7/7/149 6/6/151 4/4/149
f 23/23/152 27/27/153 7/7/154
f 7/7/154 3/3/155 23/23/152
f 45/47/156 47/49/157 37/43/156
f 43/45/158 45/47/159 37/43/158

