# This file uses centimeters as units for non-parametric coordinates.

mtllib low poly.mtl
g default
v 0.000000 0.774198 -1.486486
v 1.960638 1.172085 -0.664777
v -0.748897 1.417992 -0.664777
v -2.423482 0.774198 -0.664777
v -0.748897 0.130403 -0.664777
v 1.960637 0.376311 -0.664777
v 2.423482 0.774198 0.664777
v 0.748897 1.417992 0.664777
v -1.960638 1.172085 0.664777
v -1.960637 0.376311 0.664777
v 0.748897 0.130403 0.664777
v 0.000000 0.774198 1.486486
vt 0.863423 0.571842
vt 0.863423 0.827838
vt 0.645660 0.699840
vt 0.998008 0.699840
vt 0.645660 0.906945
vt 0.645660 0.492735
vt 0.287176 0.699840
vt 0.504939 0.571842
vt 0.504939 0.827838
vt 0.287176 0.492735
vt 0.639525 0.699840
vt 0.287176 0.906945
vt 0.354340 0.354159
vt 0.110874 0.354159
vt 0.245459 0.136395
vt 0.178166 0.488744
vt 0.001992 0.136395
vt 0.178166 0.001810
vt 0.469676 0.136395
vt 0.713142 0.136395
vt 0.604261 0.354159
vt 0.536968 0.001810
vt 0.360794 0.354159
vt 0.536968 0.488744
vt 0.937165 0.208915
vt 0.719401 0.208915
vt 0.869872 0.001810
vt 0.869872 0.416020
vt 0.281041 0.699840
vt 0.130570 0.906945
vt 0.063278 0.699840
vt 0.130570 0.492735
vn 0.074119 0.816684 -0.572306
vn 0.074119 0.816684 -0.572306
vn 0.074119 0.816684 -0.572306
vn -0.246450 0.641045 -0.726859
vn -0.246450 0.641045 -0.726859
vn -0.246450 0.641045 -0.726859
vn -0.246450 -0.641045 -0.726859
vn -0.246450 -0.641045 -0.726859
vn -0.246450 -0.641045 -0.726859
vn 0.074119 -0.816684 -0.572306
vn 0.074119 -0.816684 -0.572306
vn 0.074119 -0.816684 -0.572306
vn 0.386529 -0.000000 -0.922277
vn 0.386529 -0.000000 -0.922277
vn 0.386529 -0.000000 -0.922277
vn 0.089920 0.990784 -0.101298
vn 0.089920 0.990784 -0.101298
vn 0.089920 0.990784 -0.101298
vn -0.354642 0.922465 -0.152602
vn -0.354642 0.922465 -0.152602
vn -0.354642 0.922465 -0.152602
vn -0.354642 -0.922465 -0.152602
vn -0.354642 -0.922465 -0.152602
vn -0.354642 -0.922465 -0.152602
vn 0.089920 -0.990784 -0.101298
vn 0.089920 -0.990784 -0.101298
vn 0.089920 -0.990784 -0.101298
vn 0.944411 0.000000 -0.328768
vn 0.944411 0.000000 -0.328768
vn 0.944411 0.000000 -0.328768
vn 0.354642 0.922465 0.152602
vn 0.354642 0.922465 0.152602
vn 0.354642 0.922465 0.152602
vn -0.089920 0.990784 0.101299
vn -0.089920 0.990784 0.101299
vn -0.089920 0.990784 0.101299
vn -0.944411 0.000000 0.328768
vn -0.944411 0.000000 0.328768
vn -0.944411 0.000000 0.328768
vn -0.089920 -0.990784 0.101298
vn -0.089920 -0.990784 0.101298
vn -0.089920 -0.990784 0.101298
vn 0.354642 -0.922465 0.152602
vn 0.354642 -0.922465 0.152602
vn 0.354642 -0.922465 0.152602
vn 0.246450 0.641045 0.726859
vn 0.246450 0.641045 0.726859
vn 0.246450 0.641045 0.726859
vn -0.074119 0.816684 0.572306
vn -0.074119 0.816684 0.572306
vn -0.074119 0.816684 0.572306
vn -0.386529 -0.000000 0.922277
vn -0.386529 -0.000000 0.922277
vn -0.386529 -0.000000 0.922277
vn -0.074119 -0.816684 0.572306
vn -0.074119 -0.816684 0.572306
vn -0.074119 -0.816684 0.572306
vn 0.246450 -0.641045 0.726859
vn 0.246450 -0.641045 0.726859
vn 0.246450 -0.641045 0.726859
s off
g pPlatonic1
usemtl initialShadingGroup
f 1/16/1 3/14/2 2/13/3
f 1/25/4 4/26/5 3/27/6
f 1/25/7 5/28/8 4/26/9
f 1/22/10 6/20/11 5/19/12
f 1/4/13 2/2/14 6/1/15
f 2/13/16 3/14/17 8/15/18
f 3/12/19 4/7/20 9/9/21
f 4/7/22 5/10/23 10/8/24
f 5/19/25 6/20/26 11/21/27
f 6/1/28 2/2/29 7/3/30
f 2/2/31 8/5/32 7/3/33
f 3/14/34 9/17/35 8/15/36
f 4/7/37 10/8/38 9/9/39
f 5/19/40 11/21/41 10/23/42
f 6/1/43 7/3/44 11/6/45
f 7/29/46 8/30/47 12/31/48
f 8/15/49 9/17/50 12/18/51
f 9/9/52 10/8/53 12/11/54
f 10/23/55 11/21/56 12/24/57
f 11/32/58 7/29/59 12/31/60
