# This file uses centimeters as units for non-parametric coordinates.

mtllib papier.mtl
g default
v -0.878261 2.697655 0.002309
v -0.658695 2.697655 0.002309
v -0.439130 2.715615 0.002309
v -0.219565 2.697655 0.002309
v 0.159787 2.712666 0.002309
v 0.219565 2.697655 0.002309
v 0.506090 2.738106 0.002309
v 0.658695 2.704598 0.002309
v 0.878261 2.697655 0.002309
v -0.857993 2.878076 0.002309
v -0.658695 2.840512 0.002309
v -0.439130 2.840512 0.002309
v -0.219565 2.840512 0.002309
v 0.000000 2.840512 0.002309
v 0.219565 2.840512 0.002309
v 0.439130 2.840512 0.002309
v 0.658695 2.840512 0.002309
v 0.878261 2.840512 0.002309
v -0.878261 2.983369 0.002309
v -0.658695 2.983369 0.002309
v -0.439130 2.983369 0.002309
v -0.219565 2.983369 0.002309
v 0.000000 2.983369 0.002309
v 0.219565 2.983369 0.002309
v 0.439130 2.983369 0.002309
v 0.658695 2.983369 0.002309
v 0.878261 2.983369 0.002309
v -0.861942 3.192462 0.002309
v -0.658695 3.126227 0.002309
v -0.439130 3.126227 0.002309
v -0.219565 3.126227 0.002309
v 0.000000 3.126227 0.002309
v 0.219565 3.126227 0.002309
v 0.439130 3.126227 0.002309
v 0.658695 3.126227 0.002309
v 0.878261 3.126227 0.002309
v -0.878261 3.269084 0.002309
v -0.658695 3.269084 0.002309
v -0.439130 3.269084 0.002309
v -0.219565 3.269084 0.002309
v 0.000000 3.269084 0.002309
v 0.219565 3.269084 0.002309
v 0.439130 3.269084 0.002309
v 0.658695 3.269084 0.002309
v 0.878261 3.294540 0.002309
v -0.862529 3.496381 0.002309
v -0.658695 3.411941 0.002309
v -0.439130 3.411941 0.002309
v -0.219565 3.411941 0.002309
v 0.000000 3.411941 0.002309
v 0.219565 3.411941 0.002309
v 0.439130 3.411941 0.002309
v 0.658695 3.411941 0.002309
v 0.834166 3.336689 0.002309
v -0.878261 3.554798 0.002309
v -0.658695 3.554798 0.002309
v -0.439130 3.554798 0.002309
v -0.219565 3.554798 0.002309
v 0.000000 3.554798 0.002309
v 0.219565 3.554798 0.002309
v 0.439130 3.554798 0.002309
v 0.658695 3.554798 0.002309
v 0.878261 3.554798 0.002309
v -0.878261 3.669050 0.002309
v -0.804728 3.669734 0.002309
v -0.439130 3.697655 0.002309
v -0.349249 3.670072 0.002309
v 0.224663 3.697655 0.002309
v 0.362886 3.652398 0.002309
v 0.439130 3.697655 0.002309
v 0.658695 3.697655 0.002309
v 0.878261 3.697655 0.002309
v -0.878261 3.669050 -0.002309
v -0.804728 3.669734 -0.002309
v -0.439130 3.697655 -0.002309
v -0.349249 3.670072 -0.002309
v 0.224663 3.697655 -0.002309
v 0.362886 3.652398 -0.002309
v 0.439130 3.697655 -0.002309
v 0.658695 3.697655 -0.002309
v 0.878261 3.697655 -0.002309
v -0.878261 3.554798 -0.002309
v -0.658695 3.554798 -0.002309
v -0.439130 3.554798 -0.002309
v -0.219565 3.554798 -0.002309
v 0.000000 3.554798 -0.002309
v 0.219565 3.554798 -0.002309
v 0.439130 3.554798 -0.002309
v 0.658695 3.554798 -0.002309
v 0.878261 3.554798 -0.002309
v -0.862529 3.496381 -0.002309
v -0.658695 3.411941 -0.002309
v -0.439130 3.411941 -0.002309
v -0.219565 3.411941 -0.002309
v 0.000000 3.411941 -0.002309
v 0.219565 3.411941 -0.002309
v 0.439130 3.411941 -0.002309
v 0.658695 3.411941 -0.002309
v 0.834166 3.336689 -0.002309
v -0.878261 3.269084 -0.002309
v -0.658695 3.269084 -0.002309
v -0.439130 3.269084 -0.002309
v -0.219565 3.269084 -0.002309
v 0.000000 3.269084 -0.002309
v 0.219565 3.269084 -0.002309
v 0.439130 3.269084 -0.002309
v 0.658695 3.269084 -0.002309
v 0.878261 3.294540 -0.002309
v -0.861942 3.192462 -0.002309
v -0.658695 3.126227 -0.002309
v -0.439130 3.126227 -0.002309
v -0.219565 3.126227 -0.002309
v 0.000000 3.126227 -0.002309
v 0.219565 3.126227 -0.002309
v 0.439130 3.126227 -0.002309
v 0.658695 3.126227 -0.002309
v 0.878261 3.126227 -0.002309
v -0.878261 2.983369 -0.002309
v -0.658695 2.983369 -0.002309
v -0.439130 2.983369 -0.002309
v -0.219565 2.983369 -0.002309
v 0.000000 2.983369 -0.002309
v 0.219565 2.983369 -0.002309
v 0.439130 2.983369 -0.002309
v 0.658695 2.983369 -0.002309
v 0.878261 2.983369 -0.002309
v -0.857993 2.878076 -0.002309
v -0.658695 2.840512 -0.002309
v -0.439130 2.840512 -0.002309
v -0.219565 2.840512 -0.002309
v 0.000000 2.840512 -0.002309
v 0.219565 2.840512 -0.002309
v 0.439130 2.840512 -0.002309
v 0.658695 2.840512 -0.002309
v 0.878261 2.840512 -0.002309
v -0.878261 2.697655 -0.002309
v -0.658695 2.697655 -0.002309
v -0.439130 2.715615 -0.002309
v -0.219565 2.697655 -0.002309
v 0.159787 2.712666 -0.002309
v 0.219565 2.697655 -0.002309
v 0.506090 2.738106 -0.002309
v 0.658695 2.704598 -0.002309
v 0.878261 2.697655 -0.002309
vt 0.379816 0.026221
vt 0.408790 0.026400
vt 0.438028 0.030614
vt 0.467451 0.025846
vt 0.518657 0.028271
vt 0.526652 0.024436
vt 0.565726 0.032805
vt 0.586307 0.023966
vt 0.616349 0.021248
vt 0.380562 0.069593
vt 0.408213 0.060671
vt 0.438119 0.060456
vt 0.467907 0.060072
vt 0.497676 0.059473
vt 0.527462 0.058681
vt 0.557277 0.057711
vt 0.587145 0.056591
vt 0.617090 0.055460
vt 0.379423 0.095069
vt 0.408628 0.094812
vt 0.438453 0.094664
vt 0.468362 0.094309
vt 0.498279 0.093762
vt 0.528186 0.093019
vt 0.558074 0.092067
vt 0.587937 0.090907
vt 0.617804 0.089612
vt 0.380204 0.145227
vt 0.408571 0.129176
vt 0.438717 0.128927
vt 0.468812 0.128593
vt 0.498885 0.128112
vt 0.528943 0.127453
vt 0.558963 0.126565
vt 0.588881 0.125372
vt 0.618555 0.123667
vt 0.379352 0.163763
vt 0.408899 0.163342
vt 0.439067 0.163165
vt 0.469279 0.162894
vt 0.499491 0.162490
vt 0.529759 0.161958
vt 0.560075 0.161202
vt 0.590452 0.160212
vt 0.619820 0.163571
vt 0.379927 0.218291
vt 0.408810 0.197621
vt 0.439332 0.197370
vt 0.469675 0.197210
vt 0.499956 0.196828
vt 0.530445 0.196489
vt 0.561043 0.195800
vt 0.592210 0.194348
vt 0.618025 0.175149
vt 0.379089 0.232514
vt 0.408989 0.231430
vt 0.439770 0.231399
vt 0.469937 0.231694
vt 0.500082 0.230906
vt 0.530806 0.231181
vt 0.560925 0.230992
vt 0.592115 0.228470
vt 0.622103 0.227389
vt 0.378893 0.260000
vt 0.388899 0.260035
vt 0.438309 0.262808
vt 0.451977 0.260495
vt 0.529647 0.262641
vt 0.551011 0.258439
vt 0.564837 0.262523
vt 0.594297 0.261889
vt 0.623736 0.261399
vt 0.378816 0.502608
vt 0.388843 0.502487
vt 0.439069 0.499314
vt 0.452538 0.501451
vt 0.531087 0.498884
vt 0.552011 0.502780
vt 0.566224 0.498357
vt 0.595646 0.499568
vt 0.625419 0.500229
vt 0.379652 0.530608
vt 0.409888 0.530818
vt 0.440707 0.530603
vt 0.470891 0.530117
vt 0.501055 0.530694
vt 0.531741 0.530286
vt 0.561549 0.530312
vt 0.592548 0.532442
vt 0.622764 0.533786
vt 0.382145 0.544685
vt 0.410443 0.564565
vt 0.440738 0.564537
vt 0.470887 0.564532
vt 0.500998 0.564800
vt 0.531113 0.565013
vt 0.561103 0.565391
vt 0.591234 0.566409
vt 0.614691 0.585007
vt 0.380745 0.598554
vt 0.410728 0.598425
vt 0.440771 0.598566
vt 0.470785 0.598817
vt 0.500767 0.599201
vt 0.530715 0.599637
vt 0.560604 0.600118
vt 0.590480 0.600705
vt 0.620521 0.595094
vt 0.383028 0.616522
vt 0.410695 0.632197
vt 0.440629 0.632595
vt 0.470555 0.633066
vt 0.500494 0.633639
vt 0.530415 0.634255
vt 0.560289 0.634820
vt 0.590130 0.635115
vt 0.619974 0.635192
vt 0.380413 0.665307
vt 0.410347 0.665842
vt 0.440226 0.666613
vt 0.470118 0.667233
vt 0.500121 0.668024
vt 0.530134 0.668874
vt 0.560168 0.669705
vt 0.590025 0.669686
vt 0.619973 0.669269
vt 0.382707 0.689690
vt 0.409649 0.699345
vt 0.439436 0.700779
vt 0.469368 0.701149
vt 0.499530 0.702271
vt 0.529612 0.703376
vt 0.560320 0.705131
vt 0.590309 0.704384
vt 0.620582 0.703256
vt 0.378121 0.730949
vt 0.408043 0.732117
vt 0.438493 0.731481
vt 0.468669 0.734024
vt 0.520744 0.734076
vt 0.529439 0.735554
vt 0.569930 0.732455
vt 0.592058 0.735927
vt 0.622052 0.737315
vt 0.368506 0.967780
vt 0.398457 0.968969
vt 0.428548 0.970159
vt 0.458792 0.971387
vt 0.510366 0.973683
vt 0.519281 0.974104
vt 0.558960 0.976111
vt 0.581173 0.977383
vt 0.611090 0.979107
vt 0.856918 0.016163
vt 0.857506 0.050410
vt 0.858092 0.084634
vt 0.858644 0.118842
vt 0.859018 0.159190
vt 0.859080 0.170847
vt 0.860137 0.223402
vt 0.860766 0.257645
vt 0.141405 0.023914
vt 0.140922 0.067278
vt 0.140611 0.092604
vt 0.140027 0.142845
vt 0.139791 0.161310
vt 0.139101 0.215915
vt 0.138897 0.230055
vt 0.138490 0.257466
vn 0.000000 0.000000 1.000000
vn 0.000000 0.000000 1.000000
vn 0.000000 0.000000 1.000000
vn 0.000000 0.000000 1.000000
vn 0.000000 0.000000 1.000000
vn 0.000000 0.000000 1.000000
vn 0.000000 0.000000 1.000000
vn 0.000000 0.000000 1.000000
vn 0.000000 0.000000 1.000000
vn 0.000000 0.000000 1.000000
vn 0.000000 0.000000 1.000000
vn 0.000000 0.000000 1.000000
vn 0.000000 0.000000 1.000000
vn 0.000000 0.000000 1.000000
vn 0.000000 0.000000 1.000000
vn 0.000000 0.000000 1.000000
vn 0.000000 0.000000 1.000000
vn 0.000000 0.000000 1.000000
vn 0.000000 0.000000 1.000000
vn 0.000000 0.000000 1.000000
vn 0.000000 0.000000 1.000000
vn 0.000000 0.000000 1.000000
vn 0.000000 0.000000 1.000000
vn 0.000000 0.000000 1.000000
vn 0.000000 0.000000 1.000000
vn 0.000000 0.000000 1.000000
vn 0.000000 0.000000 1.000000
vn 0.000000 0.000000 1.000000
vn 0.000000 0.000000 1.000000
vn 0.000000 0.000000 1.000000
vn 0.000000 0.000000 1.000000
vn 0.000000 0.000000 1.000000
vn 0.000000 0.000000 1.000000
vn 0.000000 0.000000 1.000000
vn 0.000000 0.000000 1.000000
vn 0.000000 0.000000 1.000000
vn 0.000000 0.000000 1.000000
vn 0.000000 0.000000 1.000000
vn 0.000000 0.000000 1.000000
vn 0.000000 0.000000 1.000000
vn 0.000000 0.000000 1.000000
vn 0.000000 0.000000 1.000000
vn 0.000000 0.000000 1.000000
vn 0.000000 0.000000 1.000000
vn 0.000000 0.000000 1.000000
vn 0.000000 0.000000 1.000000
vn 0.000000 0.000000 1.000000
vn 0.000000 0.000000 1.000000
vn 0.000000 0.000000 1.000000
vn 0.000000 0.000000 1.000000
vn 0.000000 0.000000 1.000000
vn 0.000000 0.000000 1.000000
vn 0.000000 0.000000 1.000000
vn 0.000000 0.000000 1.000000
vn 0.000000 0.000000 1.000000
vn 0.000000 0.000000 1.000000
vn 0.000000 0.000000 1.000000
vn 0.000000 0.000000 1.000000
vn 0.000000 0.000000 1.000000
vn 0.000000 0.000000 1.000000
vn 0.000000 0.000000 1.000000
vn 0.000000 0.000000 1.000000
vn 0.000000 0.000000 1.000000
vn 0.000000 0.000000 1.000000
vn 0.000000 0.000000 1.000000
vn 0.000000 0.000000 1.000000
vn 0.000000 0.000000 1.000000
vn 0.000000 0.000000 1.000000
vn 0.000000 0.000000 1.000000
vn 0.000000 0.000000 1.000000
vn 0.000000 0.000000 1.000000
vn 0.000000 0.000000 1.000000
vn -0.009304 0.999957 0.000000
vn -0.065003 0.997885 0.000000
vn -0.065003 0.997885 0.000000
vn -0.009304 0.999957 0.000000
vn -0.000741 1.000000 0.000000
vn -0.000741 1.000000 0.000000
vn 0.000000 1.000000 0.000000
vn 0.000000 1.000000 0.000000
vn 0.024810 0.999692 0.000000
vn 0.024810 0.999692 0.000000
vn 0.000000 1.000000 0.000000
vn 0.000000 1.000000 0.000000
vn -0.151235 0.988498 0.000000
vn -0.151235 0.988498 0.000000
vn 0.000000 1.000000 0.000000
vn 0.000000 1.000000 0.000000
vn 0.000000 1.000000 0.000000
vn 0.000000 1.000000 0.000000
vn 0.000000 0.000000 -1.000000
vn 0.000000 0.000000 -1.000000
vn 0.000000 0.000000 -1.000000
vn 0.000000 0.000000 -1.000000
vn 0.000000 0.000000 -1.000000
vn 0.000000 0.000000 -1.000000
vn 0.000000 0.000000 -1.000000
vn 0.000000 0.000000 -1.000000
vn 0.000000 0.000000 -1.000000
vn 0.000000 0.000000 -1.000000
vn 0.000000 0.000000 -1.000000
vn 0.000000 0.000000 -1.000000
vn 0.000000 0.000000 -1.000000
vn 0.000000 0.000000 -1.000000
vn 0.000000 0.000000 -1.000000
vn 0.000000 0.000000 -1.000000
vn 0.000000 0.000000 -1.000000
vn 0.000000 0.000000 -1.000000
vn 0.000000 0.000000 -1.000000
vn 0.000000 0.000000 -1.000000
vn 0.000000 0.000000 -1.000000
vn 0.000000 0.000000 -1.000000
vn 0.000000 0.000000 -1.000000
vn 0.000000 0.000000 -1.000000
vn 0.000000 0.000000 -1.000000
vn 0.000000 0.000000 -1.000000
vn 0.000000 0.000000 -1.000000
vn 0.000000 0.000000 -1.000000
vn 0.000000 0.000000 -1.000000
vn 0.000000 0.000000 -1.000000
vn 0.000000 0.000000 -1.000000
vn 0.000000 0.000000 -1.000000
vn 0.000000 0.000000 -1.000000
vn 0.000000 0.000000 -1.000000
vn 0.000000 0.000000 -1.000000
vn 0.000000 0.000000 -1.000000
vn 0.000000 0.000000 -1.000000
vn 0.000000 0.000000 -1.000000
vn 0.000000 0.000000 -1.000000
vn 0.000000 0.000000 -1.000000
vn 0.000000 0.000000 -1.000000
vn 0.000000 0.000000 -1.000000
vn 0.000000 0.000000 -1.000000
vn 0.000000 0.000000 -1.000000
vn 0.000000 0.000000 -1.000000
vn 0.000000 0.000000 -1.000000
vn 0.000000 0.000000 -1.000000
vn 0.000000 0.000000 -1.000000
vn 0.000000 0.000000 -1.000000
vn 0.000000 0.000000 -1.000000
vn 0.000000 0.000000 -1.000000
vn 0.000000 0.000000 -1.000000
vn 0.000000 0.000000 -1.000000
vn 0.000000 0.000000 -1.000000
vn 0.000000 0.000000 -1.000000
vn 0.000000 0.000000 -1.000000
vn 0.000000 0.000000 -1.000000
vn 0.000000 0.000000 -1.000000
vn 0.000000 0.000000 -1.000000
vn 0.000000 0.000000 -1.000000
vn 0.000000 0.000000 -1.000000
vn 0.000000 0.000000 -1.000000
vn 0.000000 0.000000 -1.000000
vn 0.000000 0.000000 -1.000000
vn 0.000000 0.000000 -1.000000
vn 0.000000 0.000000 -1.000000
vn 0.000000 0.000000 -1.000000
vn 0.000000 0.000000 -1.000000
vn 0.000000 0.000000 -1.000000
vn 0.000000 0.000000 -1.000000
vn 0.000000 0.000000 -1.000000
vn 0.000000 0.000000 -1.000000
vn 0.000000 -1.000000 0.000000
vn 0.040864 -0.999165 0.000000
vn 0.040864 -0.999165 0.000000
vn 0.000000 -1.000000 0.000000
vn 0.000000 -1.000000 0.000000
vn 0.000000 -1.000000 0.000000
vn -0.004923 -0.999988 0.000000
vn -0.004923 -0.999988 0.000000
vn 0.000000 -1.000000 0.000000
vn 0.000000 -1.000000 0.000000
vn 0.073265 -0.997313 0.000000
vn 0.073265 -0.997313 0.000000
vn 0.015809 -0.999875 0.000000
vn 0.015809 -0.999875 0.000000
vn -0.108053 -0.994145 0.000000
vn -0.108053 -0.994145 0.000000
vn -0.031607 -0.999500 0.000000
vn -0.031607 -0.999500 0.000000
vn 1.000000 0.000000 0.000000
vn 1.000000 0.000000 0.000000
vn 1.000000 0.000000 0.000000
vn 1.000000 0.000000 0.000000
vn 1.000000 0.000000 0.000000
vn 1.000000 0.000000 0.000000
vn 1.000000 0.000000 0.000000
vn 1.000000 0.000000 0.000000
vn 0.978749 0.205062 -0.000001
vn 0.978749 0.205062 -0.000001
vn 1.000000 -0.000000 0.000000
vn 1.000000 -0.000000 0.000000
vn 0.992621 -0.121256 0.000000
vn 0.992621 -0.121256 0.000000
vn 1.000000 0.000000 0.000000
vn 1.000000 0.000000 0.000000
vn -0.993749 0.111634 0.000000
vn -0.993749 0.111634 0.000000
vn -1.000000 0.000000 0.000000
vn -1.000000 0.000000 0.000000
vn -0.999921 -0.012563 -0.000000
vn -0.999921 -0.012563 -0.000000
vn -1.000000 -0.000000 0.000000
vn -1.000000 -0.000000 0.000000
vn -0.999998 -0.001930 -0.000000
vn -0.999998 -0.001930 -0.000000
vn -1.000000 -0.000000 -0.000000
vn -1.000000 0.000000 -0.000000
vn -0.995875 -0.090732 0.000000
vn -0.995875 -0.090732 0.000000
vn -1.000000 0.000000 0.000000
vn -1.000000 0.000000 0.000000
s 1
g pCube1
usemtl lambert4SG
f 1/1/1 2/2/2 11/11/3 10/10/4
f 2/2/2 3/3/5 12/12/6 11/11/3
f 3/3/5 4/4/7 13/13/8 12/12/6
f 4/4/7 5/5/9 14/14/10 13/13/8
f 5/5/9 6/6/11 15/15/12 14/14/10
f 6/6/11 7/7/13 16/16/14 15/15/12
f 7/7/13 8/8/15 17/17/16 16/16/14
f 8/8/15 9/9/17 18/18/18 17/17/16
f 10/10/4 11/11/3 20/20/19 19/19/20
f 11/11/3 12/12/6 21/21/21 20/20/19
f 12/12/6 13/13/8 22/22/22 21/21/21
f 13/13/8 14/14/10 23/23/23 22/22/22
f 14/14/10 15/15/12 24/24/24 23/23/23
f 15/15/12 16/16/14 25/25/25 24/24/24
f 16/16/14 17/17/16 26/26/26 25/25/25
f 17/17/16 18/18/18 27/27/27 26/26/26
f 19/19/20 20/20/19 29/29/28 28/28/29
f 20/20/19 21/21/21 30/30/30 29/29/28
f 21/21/21 22/22/22 31/31/31 30/30/30
f 22/22/22 23/23/23 32/32/32 31/31/31
f 23/23/23 24/24/24 33/33/33 32/32/32
f 24/24/24 25/25/25 34/34/34 33/33/33
f 25/25/25 26/26/26 35/35/35 34/34/34
f 26/26/26 27/27/27 36/36/36 35/35/35
f 28/28/29 29/29/28 38/38/37 37/37/38
f 29/29/28 30/30/30 39/39/39 38/38/37
f 30/30/30 31/31/31 40/40/40 39/39/39
f 31/31/31 32/32/32 41/41/41 40/40/40
f 32/32/32 33/33/33 42/42/42 41/41/41
f 33/33/33 34/34/34 43/43/43 42/42/42
f 34/34/34 35/35/35 44/44/44 43/43/43
f 35/35/35 36/36/36 45/45/45 44/44/44
f 37/37/38 38/38/37 47/47/46 46/46/47
f 38/38/37 39/39/39 48/48/48 47/47/46
f 39/39/39 40/40/40 49/49/49 48/48/48
f 40/40/40 41/41/41 50/50/50 49/49/49
f 41/41/41 42/42/42 51/51/51 50/50/50
f 42/42/42 43/43/43 52/52/52 51/51/51
f 43/43/43 44/44/44 53/53/53 52/52/52
f 44/44/44 45/45/45 54/54/54 53/53/53
f 46/46/47 47/47/46 56/56/55 55/55/56
f 47/47/46 48/48/48 57/57/57 56/56/55
f 48/48/48 49/49/49 58/58/58 57/57/57
f 49/49/49 50/50/50 59/59/59 58/58/58
f 50/50/50 51/51/51 60/60/60 59/59/59
f 51/51/51 52/52/52 61/61/61 60/60/60
f 52/52/52 53/53/53 62/62/62 61/61/61
f 53/53/53 54/54/54 63/63/63 62/62/62
f 55/55/56 56/56/55 65/65/64 64/64/65
f 56/56/55 57/57/57 66/66/66 65/65/64
f 57/57/57 58/58/58 67/67/67 66/66/66
f 58/58/58 59/59/59 68/68/68 67/67/67
f 59/59/59 60/60/60 69/69/69 68/68/68
f 60/60/60 61/61/61 70/70/70 69/69/69
f 61/61/61 62/62/62 71/71/71 70/70/70
f 62/62/62 63/63/63 72/72/72 71/71/71
s 2
f 64/64/73 65/65/74 74/74/75 73/73/76
f 65/65/74 66/66/77 75/75/78 74/74/75
f 66/66/77 67/67/79 76/76/80 75/75/78
f 67/67/79 68/68/81 77/77/82 76/76/80
f 68/68/81 69/69/83 78/78/84 77/77/82
f 69/69/83 70/70/85 79/79/86 78/78/84
f 70/70/85 71/71/87 80/80/88 79/79/86
f 71/71/87 72/72/89 81/81/90 80/80/88
s 3
f 73/73/91 74/74/92 83/83/93 82/82/94
f 74/74/92 75/75/95 84/84/96 83/83/93
f 75/75/95 76/76/97 85/85/98 84/84/96
f 76/76/97 77/77/99 86/86/100 85/85/98
f 77/77/99 78/78/101 87/87/102 86/86/100
f 78/78/101 79/79/103 88/88/104 87/87/102
f 79/79/103 80/80/105 89/89/106 88/88/104
f 80/80/105 81/81/107 90/90/108 89/89/106
f 82/82/94 83/83/93 92/92/109 91/91/110
f 83/83/93 84/84/96 93/93/111 92/92/109
f 84/84/96 85/85/98 94/94/112 93/93/111
f 85/85/98 86/86/100 95/95/113 94/94/112
f 86/86/100 87/87/102 96/96/114 95/95/113
f 87/87/102 88/88/104 97/97/115 96/96/114
f 88/88/104 89/89/106 98/98/116 97/97/115
f 89/89/106 90/90/108 99/99/117 98/98/116
f 91/91/110 92/92/109 101/101/118 100/100/119
f 92/92/109 93/93/111 102/102/120 101/101/118
f 93/93/111 94/94/112 103/103/121 102/102/120
f 94/94/112 95/95/113 104/104/122 103/103/121
f 95/95/113 96/96/114 105/105/123 104/104/122
f 96/96/114 97/97/115 106/106/124 105/105/123
f 97/97/115 98/98/116 107/107/125 106/106/124
f 98/98/116 99/99/117 108/108/126 107/107/125
f 100/100/119 101/101/118 110/110/127 109/109/128
f 101/101/118 102/102/120 111/111/129 110/110/127
f 102/102/120 103/103/121 112/112/130 111/111/129
f 103/103/121 104/104/122 113/113/131 112/112/130
f 104/104/122 105/105/123 114/114/132 113/113/131
f 105/105/123 106/106/124 115/115/133 114/114/132
f 106/106/124 107/107/125 116/116/134 115/115/133
f 107/107/125 108/108/126 117/117/135 116/116/134
f 109/109/128 110/110/127 119/119/136 118/118/137
f 110/110/127 111/111/129 120/120/138 119/119/136
f 111/111/129 112/112/130 121/121/139 120/120/138
f 112/112/130 113/113/131 122/122/140 121/121/139
f 113/113/131 114/114/132 123/123/141 122/122/140
f 114/114/132 115/115/133 124/124/142 123/123/141
f 115/115/133 116/116/134 125/125/143 124/124/142
f 116/116/134 117/117/135 126/126/144 125/125/143
f 118/118/137 119/119/136 128/128/145 127/127/146
f 119/119/136 120/120/138 129/129/147 128/128/145
f 120/120/138 121/121/139 130/130/148 129/129/147
f 121/121/139 122/122/140 131/131/149 130/130/148
f 122/122/140 123/123/141 132/132/150 131/131/149
f 123/123/141 124/124/142 133/133/151 132/132/150
f 124/124/142 125/125/143 134/134/152 133/133/151
f 125/125/143 126/126/144 135/135/153 134/134/152
f 127/127/146 128/128/145 137/137/154 136/136/155
f 128/128/145 129/129/147 138/138/156 137/137/154
f 129/129/147 130/130/148 139/139/157 138/138/156
f 130/130/148 131/131/149 140/140/158 139/139/157
f 131/131/149 132/132/150 141/141/159 140/140/158
f 132/132/150 133/133/151 142/142/160 141/141/159
f 133/133/151 134/134/152 143/143/161 142/142/160
f 134/134/152 135/135/153 144/144/162 143/143/161
s 4
f 136/136/163 137/137/164 2/146/165 1/145/166
f 137/137/164 138/138/167 3/147/168 2/146/165
f 138/138/167 139/139/169 4/148/170 3/147/168
f 139/139/169 140/140/171 5/149/172 4/148/170
f 140/140/171 141/141/173 6/150/174 5/149/172
f 141/141/173 142/142/175 7/151/176 6/150/174
f 142/142/175 143/143/177 8/152/178 7/151/176
f 143/143/177 144/144/179 9/153/180 8/152/178
s 5
f 9/9/181 144/154/182 135/155/183 18/18/184
f 18/18/184 135/155/183 126/156/185 27/27/186
f 27/27/186 126/156/185 117/157/187 36/36/188
f 36/36/188 117/157/187 108/158/189 45/45/190
f 45/45/190 108/158/189 99/159/191 54/54/192
f 54/54/192 99/159/191 90/160/193 63/63/194
f 63/63/194 90/160/193 81/161/195 72/72/196
s 6
f 136/162/197 1/1/198 10/10/199 127/163/200
f 127/163/200 10/10/199 19/19/201 118/164/202
f 118/164/202 19/19/201 28/28/203 109/165/204
f 109/165/204 28/28/203 37/37/205 100/166/206
f 100/166/206 37/37/205 46/46/207 91/167/208
f 91/167/208 46/46/207 55/55/209 82/168/210
f 82/168/210 55/55/209 64/64/211 73/169/212
